<svg xmlns="http://www.w3.org/2000/svg" xmlns:xlink="http://www.w3.org/1999/xlink" width="500" zoomAndPan="magnify" viewBox="0 0 375 374.999991" height="500" preserveAspectRatio="xMidYMid meet" version="1.2"><g id="528fcce8a4"><rect x="0" width="375" y="0" height="374.999991" style="fill:#ffffff;fill-opacity:1;stroke:none;"/><rect x="0" width="375" y="0" height="374.999991" style="fill:#ffffff;fill-opacity:1;stroke:none;"/><path style=" stroke:none;fill-rule:nonzero;fill:#a6a6a6;fill-opacity:1;" d="M 93.78125 349.859375 C 104.535156 356.085938 115.933594 361.257812 127.914062 365.238281 L 127.914062 143.207031 L 93.78125 196.664062 Z M 93.78125 349.859375 "/><path style=" stroke:none;fill-rule:nonzero;fill:#a6a6a6;fill-opacity:1;" d="M 247.078125 143.171875 L 247.078125 365.273438 C 259.058594 361.257812 270.492188 356.085938 281.242188 349.859375 L 281.242188 196.664062 Z M 247.078125 143.171875 "/><path style=" stroke:none;fill-rule:nonzero;fill:#ffffff;fill-opacity:1;" d="M 196.171875 0.117188 C 285.019531 4.644531 355.664062 78.078125 355.664062 168.046875 C 355.664062 226.203125 326.128906 277.480469 281.242188 307.699219 C 270.660156 314.8125 259.191406 320.765625 247.078125 325.359375 C 241.566406 327.46875 235.917969 329.273438 230.132812 330.769531 L 230.132812 116.628906 L 196 63.207031 L 196 336.011719 C 193.210938 336.144531 190.386719 336.214844 187.527344 336.214844 C 184.667969 336.214844 181.84375 336.144531 179.019531 336.011719 L 179.019531 63.207031 L 144.890625 116.628906 L 144.890625 330.734375 C 139.105469 329.238281 133.457031 327.4375 127.914062 325.324219 C 115.796875 320.730469 104.363281 314.8125 93.78125 307.664062 C 48.898438 277.480469 19.363281 226.203125 19.363281 168.046875 C 19.363281 78.078125 90.039062 4.644531 178.886719 0.117188 C 79.320312 4.609375 0 86.753906 0 187.410156 C 0 256.828125 37.703125 317.429688 93.78125 349.859375 C 104.535156 356.085938 115.933594 361.257812 127.914062 365.238281 C 133.457031 367.113281 139.140625 368.746094 144.890625 370.074219 C 155.917969 372.625 167.351562 374.222656 179.023438 374.734375 C 181.847656 374.871094 184.671875 374.9375 187.53125 374.9375 C 190.355469 374.9375 193.179688 374.871094 196.003906 374.734375 C 207.675781 374.222656 219.074219 372.65625 230.132812 370.074219 C 235.886719 368.746094 241.535156 367.144531 247.082031 365.273438 C 259.058594 361.257812 270.492188 356.085938 281.246094 349.859375 C 337.289062 317.464844 375.027344 256.863281 375.027344 187.410156 C 375.027344 86.753906 295.707031 4.609375 196.171875 0.117188 Z M 196.171875 0.117188 "/></g></svg>